<?xml version="1.0" encoding="UTF-8" standalone="no"?>
<!-- Created with Inkscape (http://www.inkscape.org/) -->

<svg
   version="1.1"
   id="svg1"
   width="1024"
   height="1024"
   viewBox="0 0 1024 1024"
   sodipodi:docname="logo landkaart met kompas.svg"
   inkscape:version="1.4.2 (f4327f4, 2025-05-13)"
   xmlns:inkscape="http://www.inkscape.org/namespaces/inkscape"
   xmlns:sodipodi="http://sodipodi.sourceforge.net/DTD/sodipodi-0.dtd"
   xmlns="http://www.w3.org/2000/svg"
   xmlns:svg="http://www.w3.org/2000/svg">
  <defs
     id="defs1" />
  <sodipodi:namedview
     id="namedview1"
     pagecolor="#ffffff"
     bordercolor="#000000"
     borderopacity="0.25"
     inkscape:showpageshadow="2"
     inkscape:pageopacity="0.0"
     inkscape:pagecheckerboard="0"
     inkscape:deskcolor="#d1d1d1"
     showgrid="false"
     inkscape:zoom="0.83105469"
     inkscape:cx="511.39835"
     inkscape:cy="512"
     inkscape:window-width="1920"
     inkscape:window-height="1111"
     inkscape:window-x="-9"
     inkscape:window-y="-9"
     inkscape:window-maximized="1"
     inkscape:current-layer="g1" />
  <g
     inkscape:groupmode="layer"
     inkscape:label="Image"
     id="g1">
    <path
       style="fill:#495a58;fill-opacity:1;stroke:#49585a;stroke-width:0.864381;stroke-miterlimit:4;stroke-dasharray:none;stroke-dashoffset:0;stroke-opacity:1"
       d="m 616.49788,730.86085 c -43.67666,-4.60413 -81.422,-30.21066 -103.12329,-69.95911 -4.63693,-8.49308 -0.16036,-6.30281 -43.66761,-21.36543 -20.88513,-7.23062 -41.07983,-14.2366 -44.87711,-15.5688 l -6.90419,-2.42222 -72.92531,24.60849 c -79.64025,26.87443 -77.52736,26.2524 -80.17646,23.6033 l -1.81059,-1.81058 V 507.04109 346.1357 l 1.9418,-2.1127 c 2.09869,-2.28342 147.41993,-51.5634 152.29489,-51.64483 1.32095,-0.0221 12.11071,3.27743 23.97726,7.33219 29.99517,10.24929 90.8549,30.95797 115.64489,39.35036 11.39189,3.85661 21.6046,7.39289 22.69493,7.8584 1.24142,0.53002 28.27842,0.84638 72.33479,0.84638 70.65803,0 72.85505,0.0863 74.75657,2.934 0.34873,0.52227 0.64,37.02381 0.64727,81.11452 l 0.0132,80.16494 4.6089,5.70571 c 72.75271,90.06621 -0.47027,225.29451 -115.42994,213.17618 z m 37.49485,-10.17321 c 45.66092,-9.18785 82.93979,-44.5113 94.36968,-89.41956 26.31746,-103.40199 -80.86862,-188.0577 -176.38737,-139.31096 -70.60007,36.02981 -86.66116,133.9604 -31.52589,192.22524 29.32907,30.99379 72.29035,44.80623 113.54358,36.50528 z m -29.15209,-12.28021 c -3.59154,-1.03723 -8.85149,-6.27657 -8.85149,-8.81681 0,-4.51774 3.9148,-5.29713 6.82637,-1.35902 3.69481,4.99749 11.19358,6.0967 15.39643,2.25687 4.21177,-3.84798 2.03264,-6.30428 -8.43807,-9.51133 -16.12891,-4.94011 -17.93741,-20.41669 -2.80068,-23.96736 9.53971,-2.23776 22.98734,6.54102 17.86552,11.66283 -1.85968,1.8597 -2.65964,1.71564 -4.90644,-0.88363 -4.14635,-4.7968 -9.93693,-5.99461 -13.902,-2.87568 -4.74957,3.73602 -1.81188,7.28422 8.58671,10.37122 8.46227,2.51218 11.5779,5.74267 11.5779,12.00471 0,9.18195 -10.01084,14.39416 -21.35425,11.1182 z m -65.16365,-37.07797 c -3.39922,-1.97987 0.20168,-6.94204 35.80385,-49.33887 4.68342,-5.57726 8.20397,-10.14721 7.82341,-10.15541 -2.53281,-0.0546 -22.05464,-5.13334 -23.11531,-6.01363 -3.75178,-3.1137 -0.29395,-4.8026 15.88756,-7.7599 16.68556,-3.04942 16.54769,-1.91643 2.33511,-19.18914 -11.41735,-13.87568 -12.90384,-16.45684 -10.72957,-18.63112 1.93761,-1.9376 3.98375,-1.03919 19.20548,8.43279 9.28886,5.78016 15.34047,9.05787 15.53554,8.41446 0.17575,-0.57967 1.56752,-6.29681 3.09284,-12.70474 4.51867,-18.98328 7.7369,-19.40828 11.08115,-1.46341 1.00686,5.40266 1.83066,10.66062 1.83066,11.68437 0,2.61022 -0.93681,3.15604 18.77612,-10.93947 24.35401,-17.41407 43.85714,-30.35026 45.75724,-30.35026 5.73115,0 4.6083,4.49222 -3.47458,13.90091 -30.41889,35.40833 -40.81285,47.62394 -41.03701,48.22915 -0.14258,0.38494 2.57594,1.15533 6.04115,1.71199 14.23271,2.28636 18.35609,3.67397 18.65573,6.27803 0.34129,2.96618 -0.0874,3.13422 -15.80742,6.1954 -6.64527,1.29402 -12.57835,2.50885 -13.18462,2.69959 -0.68131,0.21435 2.71976,5.43871 8.90531,13.67936 8.72944,11.62974 9.97246,13.69874 9.73252,16.19972 -0.46164,4.81153 -2.67353,4.1609 -18.32696,-5.39081 -7.91426,-4.82928 -14.52523,-8.63628 -14.69102,-8.46 -0.32864,0.34944 -4.79856,24.35791 -4.79856,25.77362 0,1.14642 -3.20265,4.32116 -4.35914,4.32116 -1.55319,0 -3.14655,-5.17663 -5.22962,-16.99049 l -2.0067,-11.38086 -3.91126,2.80661 c -20.95558,15.03716 -56.58101,39.38375 -57.57474,39.34685 -0.38878,-0.0144 -1.3865,-0.42209 -2.21716,-0.9059 z m 50.13256,-41.13699 9.34054,-6.67483 -3.95378,-3.64196 c -2.17458,-2.00307 -4.14796,-3.63928 -4.38529,-3.63603 -0.38162,0.005 -4.04012,4.3308 -22.54995,26.66165 l -4.63524,5.59209 8.42159,-5.81306 c 4.63186,-3.19717 12.62483,-8.81671 17.76213,-12.48786 z m 21.91547,-4.39456 c -1.83641,-0.44709 -2.03623,0.17886 -1.36525,4.27618 l 0.61955,3.78305 0.97264,-3.8836 c 0.79843,-3.18793 0.75778,-3.9359 -0.22694,-4.17563 z m 19.57407,-2.08127 c -4.16476,-5.29138 -4.46838,-5.47383 -6.01268,-3.61306 -0.98594,1.18798 -0.97253,1.51741 0.0862,2.11801 0.68957,0.39118 3.00138,1.89997 5.13736,3.35286 2.13598,1.4529 3.98971,2.6487 4.11942,2.65735 0.12971,0.008 -1.36895,-2.02319 -3.33034,-4.51516 z m -18.18406,-5.87717 c 17.34637,-3.72012 14.71834,-29.33671 -3.00353,-29.27676 -16.09523,0.0545 -20.60929,21.82478 -5.92365,28.56845 4.11289,1.88864 3.60967,1.84872 8.92718,0.70831 z m -24.89308,-13.32506 c 0,-0.85725 -0.85736,-1.29453 -2.53812,-1.29453 -3.10789,0 -4.26967,1.4602 -1.57403,1.97832 3.62283,0.69633 4.11215,0.61496 4.11215,-0.68379 z m 50.81039,-0.48925 c 1.03169,-0.0425 -5.22235,-2.43576 -6.58054,-2.51823 -0.11866,-0.007 -0.21575,0.81217 -0.21575,1.82082 0,1.59371 0.35324,1.76328 2.69694,1.29454 1.48332,-0.29666 3.32803,-0.56537 4.09935,-0.59713 z m -0.12149,-21.76255 c 16.0654,-18.61642 22.19381,-25.97358 21.05553,-25.27722 -1.62318,0.993 -35.77295,25.54368 -36.57202,26.29204 -0.75792,0.70984 6.39859,8.73311 7.29592,8.17955 0.33649,-0.20757 4.03573,-4.34505 8.22057,-9.19437 z m -45.66768,-0.54412 c -5.70388,-4.04418 -6.08046,-3.82764 -1.94573,1.11883 2.73651,3.27374 3.51395,3.75244 4.89436,3.01366 1.47468,-0.78922 1.1757,-1.20825 -2.94863,-4.13249 z m 18.81975,-3.63411 c -0.29666,-1.48333 -0.53939,-3.29567 -0.53939,-4.02745 0,-2.18791 -0.71504,-0.79966 -1.58702,3.08117 -0.75255,3.34945 -0.6781,3.64322 0.92362,3.64322 1.49096,0 1.6644,-0.3889 1.20279,-2.69694 z m 70.74203,44.51233 c -1.65107,-1.65109 -2.0774,-36.30442 -0.48329,-39.28307 0.83092,-1.55257 1.94742,-1.66931 15.96589,-1.66931 h 15.07254 v 2.55871 c 0,3.82198 -2.06943,4.45362 -14.04993,4.28836 l -10.5462,-0.14549 v 5.32226 5.32225 l 9.15072,0.25941 c 9.78772,0.27747 11.13029,0.63758 11.13029,2.98535 0,3.00429 -1.81527,3.57377 -11.39188,3.57377 h -9.32063 v 5.58593 5.58595 l 12.29805,0.23945 12.29806,0.23945 v 3.02058 3.02057 l -14.37347,0.23626 c -12.21977,0.20085 -14.57976,0.0299 -15.75015,-1.14043 z m -168.19868,-0.60612 c -0.85585,-0.63596 -3.61227,-8.16372 -6.71519,-18.33921 -2.89488,-9.49323 -5.44129,-17.84296 -5.65869,-18.55496 -0.70732,-2.31659 1.75005,-4.63435 4.24861,-4.00724 2.37886,0.59704 1.9164,-0.56885 8.58136,21.63391 l 2.05294,6.83891 3.7298,-12.44854 c 6.71045,-22.39662 8.6395,-22.5527 15.02757,-1.21591 2.12944,7.11257 4.06906,12.34943 4.31026,11.63743 0.2412,-0.71199 0.91628,-3.43051 1.5002,-6.04115 2.75081,-12.29876 6.57674,-20.71251 9.41842,-20.71251 3.38753,0 3.47157,2.59812 0.39163,12.10697 -1.60991,4.97037 -4.32694,13.5839 -6.03785,19.14117 -5.35599,17.39705 -8.13037,15.64884 -14.63627,-9.22273 -2.23841,-8.55722 -3.00862,-10.60828 -3.00862,-8.01181 0,0.74577 -1.7057,7.0725 -3.79045,14.05942 -4.21888,14.13934 -5.5549,16.00367 -9.41372,13.13625 z m 79.71488,-81.66283 c -1.35065,-2.52372 -1.24708,-39.13624 0.11456,-40.49787 2.85262,-2.85262 4.64221,-1.29493 15.41803,13.41998 5.82224,7.95059 10.81286,14.72853 11.09023,15.06209 0.27738,0.33355 0.38015,-5.61362 0.22841,-13.21594 -0.2999,-15.02508 0.0973,-16.59325 4.08562,-16.12964 l 2.23143,0.25939 0.24366,19.41798 c 0.39195,31.23471 0.10542,31.27523 -20.28828,2.86854 l -7.09931,-9.8887 -0.23637,14.94511 -0.23639,14.94513 -2.31527,0.26747 c -1.61047,0.18606 -2.59564,-0.25643 -3.23632,-1.45354 z m -270.85006,96.902 69.66999,-23.22211 0.0189,-155.65198 c 0.0167,-136.56648 -0.1365,-155.59229 -1.24911,-155.16535 -0.69747,0.26764 -32.05752,10.64682 -69.689,23.06485 -37.63149,12.41802 -68.90634,22.96803 -69.49966,23.44449 -0.85582,0.68721 -1.07878,32.96969 -1.07878,156.19678 0,123.89579 0.21832,155.25212 1.07878,154.94298 0.59332,-0.21316 32.43028,-10.83751 70.74879,-23.60966 z m 160.20127,-0.99932 c -16.79509,-60.45915 9.79406,-122.94967 64.85886,-152.43298 l 9.91648,-5.30957 0.22153,-60.95155 c 0.20881,-57.45843 0.13463,-60.9849 -1.29454,-61.53349 -2.44294,-0.93772 -68.01224,-23.36657 -111.98282,-38.3052 -22.3091,-7.57934 -41.24164,-14.05361 -42.0723,-14.38727 -1.43501,-0.57645 -1.51028,7.13589 -1.51028,154.75815 v 155.36485 l 3.66784,1.37472 c 7.5766,2.83971 77.92791,27.06901 78.85058,27.15646 0.63573,0.0602 0.41306,-1.88803 -0.65535,-5.73412 z m 214.3789,-206.26215 c -0.11328,-40.22759 -0.40454,-73.04398 -0.64727,-72.92532 -0.24273,0.11866 -29.47121,0.21578 -64.95219,0.21581 l -64.51086,6e-5 v 59.11698 c 0,32.51433 0.009,59.11694 0.0198,59.11691 0.0109,-3e-5 3.70031,-0.9285 8.1987,-2.06329 40.71609,-10.27116 88.918,0.57666 117.78266,26.50694 1.89865,1.70563 3.64627,3.1173 3.88359,3.13707 0.23733,0.0198 0.33884,-32.87757 0.22558,-73.10516 z"
       id="path1" />
  </g>
</svg>
